<svg width="897" height="881" fill="none" xmlns="http://www.w3.org/2000/svg"><path d="M531.5 119.2h155v229.2h-155V119.2ZM731.9 119.2h-45.4v229.2h101.7V175.6a56.4 56.4 0 0 0-56.3-56.4Z" fill="#3EC1F3"/><path d="M740.1 303.4c-12.4 0-22.5-11-22.5-24.5 0-13.6 10-24.6 22.5-24.6 12.4 0 22.5 11 22.5 24.6 0 13.5-10 24.6-22.5 24.6Z" fill="#F4E6D8"/><path d="M708.5 279.4h63.2a31.6 31.6 0 0 1-19.6 29.3v8h-24v-8a31.6 31.6 0 0 1-19.6-29.3Z" fill="#4756DF"/><path d="m789.4 218-101-41" stroke="#4756DF" stroke-width="4" stroke-miterlimit="10" stroke-linecap="round"/><path d="M688.3 119.2v229.2" stroke="#4756DF" stroke-width="4" stroke-miterlimit="10"/><path d="M119 720.6v-88l53.2-54.1h149.4l53.2 54v81.7h186v-34c59.7-6.4 41.3-50.4 74.3-50.4h58.7c4.3 0 8.5 1.2 12 3.5l82.9-51.2H874l106.8 66h-.3v83.1l71.8 44.3v76.1H65.8v-77l53.2-54Z" fill="#F5EBDD"/><path d="M30 851.7h57.8c0-16-12.9-32.1-28.8-32.1-16 0-29 16.1-29 32Z" fill="#FFB7D5"/><path d="M0 851.7h43c0-11.9-9.7-23.9-21.5-23.9-11.9 0-21.5 12-21.5 23.9Z" fill="#FFB7D5"/><path d="M843 466.7c-28-8.7-64-21.2-173.6 68.4-109.6 89.6-151 31-139.8 17.5 9-11 59.3 18.5 21.8 58.1-35.5 37.7-139.7 1.7-168.3-21.4-40.6-32.8-98.8-58.7-150.2-60.5" stroke="#FFB7D5" stroke-width="4" stroke-linecap="round" stroke-linejoin="round" stroke-dasharray="12 12"/><path d="m767.1 648.1 106.9-66M979.5 648.1H767v202.6M982.1 761.4H768.5M377 791.6H225.9M767.1 648.1h-49.8M373.8 632.6H225.3v218M225.3 849.7V632.6H121M618.6 682H562M172.2 850.7v-76H67.4M172.8 579l52.5 53.6M225.3 720.6l-53.1 54M120.5 718.3H225M692.7 631.6c33 0 14.6 44 74.2 50.5H618.4c59.6-6.5 41.3-50.5 74.3-50.5Z" stroke="#FFB7D5" stroke-width="4" stroke-linecap="round" stroke-linejoin="round"/><path d="M767 849.7V682H618.3v168.6" stroke="#FFB7D5" stroke-width="4" stroke-linecap="round" stroke-linejoin="round"/><path d="M618.6 849.7v-119H377.1v120M618.2 728.4l-55.8-16M377 715.1v15.5h241.6" stroke="#FFB7D5" stroke-width="4" stroke-linecap="round" stroke-linejoin="round"/><path d="M570.6 758.2h-.2a16.4 16.4 0 0 0-16.4 16.3v77.2h33v-77.2a16.4 16.4 0 0 0-16.4-16.3ZM423 758.2h-.2a16.4 16.4 0 0 0-16.4 16.3v77.2h33v-77.2a16.4 16.4 0 0 0-16.4-16.3ZM496.8 758.2h-.2a16.4 16.4 0 0 0-16.4 16.3v77.2h33v-77.2a16.4 16.4 0 0 0-16.4-16.3ZM117.3 795.7h-.3a16.4 16.4 0 0 0-16.3 16.4v39.6h33V812a16.4 16.4 0 0 0-16.4-16.4ZM811 795.7h-.2a16.4 16.4 0 0 0-16.4 16.4v39.6h33V812a16.4 16.4 0 0 0-16.3-16.4ZM873.9 795.7h-.3a16.4 16.4 0 0 0-16.4 16.4v39.6h33V812a16.4 16.4 0 0 0-16.3-16.4ZM794.4 677.5h33v55.9h-33v-56ZM857.2 677.5h33v55.9h-33v-56ZM705 710.5h27.5v41.2H705v-41.2ZM652.9 710.5h27.4v41.2H653v-41.2ZM705 783h27.5v41.2H705v-41.3ZM652.9 783h27.4v41.2H653v-41.3ZM313.6 655.5H341v41.2h-27.4v-41.2ZM261.4 655.5H289v41.2h-27.5v-41.2ZM156 655.5h27.4v41.2H156v-41.2ZM313.6 727.9H341v41.3h-27.4v-41.3ZM261.4 727.9H289v41.3h-27.5v-41.3ZM837.7 414.8c0 20.7 22 44.5 30.8 44.5 8.7 0 30.7-23.8 30.7-44.5a30.7 30.7 0 0 0-61.5 0Z" fill="#FFB7D5"/><path d="M868.5 424.5a9.6 9.6 0 1 1 0-19.3 9.6 9.6 0 0 1 0 19.3Z" fill="#fff"/><path d="M166.7 482.6c0 20.6 22 44.4 30.7 44.4s30.7-23.8 30.7-44.4a30.7 30.7 0 1 0-61.4 0Z" fill="#FFB7D5"/><path d="M197.4 492.2a9.6 9.6 0 1 1 0-19.3 9.6 9.6 0 0 1 0 19.3Z" fill="#fff"/><path d="M587.6 284c71.2 43.5 96 164.7 111 209 16.3 47.8 52.2 46.7 94 60.6 41.6 13.9 40 44.3 40 44.3 9.8 6.6 19.1 13.8 28 21.7L807.6 687c-12.4-8.6-30.9-19.4-56.2-34.7C699 620.7 652.2 591 622 558c-30.3-33-109.8-177.7-109.8-177.7l75.4-96.3Z" fill="#4856DF"/><path d="m807.8 687 52.7-67.4a238 238 0 0 1 44.9 52.6l-74.4 95c-10.5-19-2.2-45.7-3-57.3-.6-7-7-13.7-20.3-22.9Z" fill="#30242A"/><path d="M911.2 682.7 838 776.2a33.7 33.7 0 0 1-7-9l74.4-95c2.1 3.4 4 6.9 5.8 10.5Z" fill="#3EC1F3"/><path d="m834.8 691-14.2 7.9M841.1 705.3l-14.2 3.2" stroke="#fff" stroke-width="4" stroke-linecap="round" stroke-linejoin="round"/><path d="m815.8 624.7 25.3 19.8M828.6 608.4l25.3 19.7M803 641l25.3 19.9M790.2 657.5l25.3 19.7M835 598.7l-55.5 71" stroke="#3EC1F3" stroke-width="4" stroke-miterlimit="10" stroke-linecap="round"/><path d="M565.6 472.5c12-19 23.8-40 32.8-61.7" stroke="#30242A" stroke-width="4" stroke-linecap="round" stroke-linejoin="round"/><path d="M545.8 17.4a8.7 8.7 0 1 1 0-17.4 8.7 8.7 0 0 1 0 17.4Z" fill="#4756DF"/><path d="m518.1 135.7.6-10.1a45 45 0 0 1-26.5-3.5l26.5-21.3s-9.2-3.6-3.7-22.9l-29.4-10.7c1.5-4 2.6-13.6 5.5-24l17.6 7.6a57 57 0 0 0 17.1 19.9c3-3 6.3-5.8 9.9-8.1l1.5-.9 1.5-.8 1.6-.7.1-.2 1.5-.6h.1l1.6-.5h.1l1.6-.4h.1l1.6-.3h1.7c4.3-.1 8.7 1.6 12.3 6.7 2.1 3 3.3 6.5 3.3 10.1 0 10.8-10 21-19 24 7 14.9 29.9 24.2 38.6 27.3l-.8 9.4h-65ZM340.2 197.1c4.1 0 6.1-3.4 4.4-7.5l-14-34.6h.1l-.2-.3c-3.9-3.6-7.5-7.5-10.8-11.7-6.3-8-8.2-13.9-6-16.3.7-.6 1.5-1 2.4-1.1 1-.1 1.8 0 2.7.2 7.2 1.5 19.4 11.2 33 27.3 16.5 19.4 48.6 57.8 48.6 57.8 3.3-2.6 8.2-7 14-12.1l46.1 59.3a210.3 210.3 0 0 1-31.5 20.3 34 34 0 0 0-63-4c-27.8-20.7-49.8-57.8-60-77.3h34.2Z" fill="#EAA58B"/><path d="M493 148.5h14.1c-26.9 16.2-15 46.8-15 46.8s-36.7 25.6-11.9 56.8c-1.8-2-3.4-4-4.6-6.4 0 0-5.9 5.4-15 12.4l-46.1-59.3c21.4-19.2 56.2-50.3 78.5-50.3Z" fill="#FFB7D5"/><path d="M634.2 198s27 22.5 8.8 52.7l-9.6-54 .8 1.3ZM583.2 135.7v.3l-1.2-.3h1.2Z" fill="#FF7235"/><path d="M545.4 99c8.9-3 18.9-13.2 19-24l23 10-3.3 41.3c-8.9-3.1-31.7-12.4-38.7-27.3ZM518.7 100.8l-26.5 21.3a24.1 24.1 0 0 1-11.6-12.2c-4-9.7-1.4-18.1 1.6-29 0 0-7.7-5.2-6.5-10 1-4 9.8-3.4 9.8-3.4l.1-.3L515 78c-5.5 19.2 3.7 22.8 3.7 22.8ZM525.8 70.7a57 57 0 0 1-17.1-19.9l27 11.8a55 55 0 0 0-9.9 8Z" fill="#30242A"/><path d="M540.3 60h.1-.1ZM561 64.8c-3.6-5-8-6.8-12.3-6.8 2.6-27.7-3.6-42.8-8.2-50a88 88 0 0 1 13 3c31.8 9.6 35.5 41 34.6 59.6l-.9 14.4-22.9-10c0-3.7-1.1-7.2-3.3-10.2Z" fill="#4756DF"/><path d="m537.2 61.7 1.5-.8-1.5.8ZM535.7 62.6l1.5-1-1.5 1ZM543.8 58.8ZM538.8 60.8l1.5-.7-1.5.7ZM547.2 58.1h1.5-1.5ZM545.5 58.4ZM542 59.4l1.6-.5-1.5.5ZM540.4 60Z" fill="#3EC1F3"/><path d="M548.8 58H547l-1.5.3h-.2l-1.5.4h-.2l-1.5.5h-.2l-1.5.7h-.1l-1.5.7-1.6.9-1.5.8-27-11.7-17.5-7.6c5.3-18.7 17-39.8 49.3-35.2 4.6 7.4 10.8 22.5 8.3 50.2Z" fill="#3EC1F3"/><path d="M396.8 254.9a34 34 0 0 1 32.3 23.5c-14.8 7.5-30.3 12-42.4 7.6a82.9 82.9 0 0 1-20.7-11.6 34 34 0 0 1 30.8-19.5Z" fill="#CA7358"/><path d="M488.4 311.2c-33-21.5-10-58.2-8.2-59-24.8-31.3 12-57 12-57s-12-30.5 15-46.7h10.1l.8-12.8H582l1.2.3-1.1 12.5h20.6l30.6 48.2 9.7 54-.5.8 1 1.8a47.8 47.8 0 0 1 5.5 31 44.4 44.4 0 0 1-17.5 26.9H488.4Z" fill="#FF7235"/><path d="M631.5 327.3h-143v-16.1h143v16.1Z" fill="#30242A"/><path d="M646.4 195.3H492.1M642.7 252.1H479.4M515 155l.4-5.5M532.5 152.2l.9-14.7M546.2 152.2l1-14.7M560 152.2l.9-14.7" stroke="#A15842" stroke-width="4" stroke-miterlimit="10" stroke-linecap="round"/><path d="m402.3 210 11 13.7" stroke="#A15842" stroke-width="4" stroke-linecap="round" stroke-linejoin="round"/><path d="M531.5 124.7a58 58 0 0 1-12.5 2.8" stroke="#A15842" stroke-width="4" stroke-miterlimit="10" stroke-linecap="round"/><path d="M319.7 143c0 2.7-2 4.6-5 4.6h-30c-4.1 0-8.8-3.4-10.5-7.5l-9.1-22.6c-1.7-4.1.3-7.5 4.4-7.5h30c4.1 0 8.8 3.4 10.5 7.5l3.7 9.2c-2.2 2.4-.3 8.3 6 16.3Z" fill="#F5EBDD"/><path d="M258.1 95.3h8.1l.7 1.8a7.8 7.8 0 0 0 6.6 4.7h15.4c2.6 0 3.8-2.1 2.8-4.7l-.7-1.8h8c4.2 0 8.9 3.4 10.6 7.5l9.2 23c-.9-.3-1.8-.3-2.7-.2-.9 0-1.7.5-2.4 1.1l-3.7-9.2a12.5 12.5 0 0 0-10.5-7.5h-30c-4 0-6 3.4-4.4 7.5l9.1 22.6c1.7 4.1 6.4 7.5 10.5 7.5h30c3 0 5-1.9 5-4.6 3.3 4.2 7 8 10.8 11.7l.2.3 14 34.6c1.6 4.1-.4 7.5-4.5 7.5h-41c-4 0-8.8-3.4-10.5-7.5l-35-86.8c-1.7-4.1.3-7.5 4.4-7.5Zm40 88a7.6 7.6 0 0 0 2.6 3.2c1 .9 2.5 1.4 3.9 1.4h22.8c2.5 0 3.8-2 2.7-4.6a7.7 7.7 0 0 0-6.4-4.5h-23c-2.4 0-3.6 2-2.6 4.5Z" fill="#4756DF"/><path d="M300.8 178.8h23a7.7 7.7 0 0 1 6.4 4.5c1 2.6-.2 4.6-2.8 4.6h-22.9c-1.4 0-2.7-.5-3.9-1.4-1-.8-2-1.9-2.5-3.2-1-2.5.2-4.5 2.7-4.5ZM288.9 101.8h-15.4a7.8 7.8 0 0 1-6.6-4.7l-.7-1.8H291l.7 1.8c1 2.6-.2 4.7-2.8 4.7Z" fill="#3EC1F3"/><path d="m468.3 34.8 61.4 27.5" stroke="#30242A" stroke-width="4" stroke-linecap="round" stroke-linejoin="round"/><path d="M488 92.2c1.9.5 7.9-.5 8.9-5.7" stroke="#000" stroke-width="4" stroke-miterlimit="10" stroke-linecap="round"/><path d="M497.5 66a3 3 0 1 1 0-5.9 3 3 0 0 1 0 6Z" fill="#30242A"/><path d="m548.3 76.5-10.8 6.9" stroke="#A15842" stroke-width="4" stroke-miterlimit="10" stroke-linecap="round"/><path d="m525.1 68.8-11.9 9.1M548 100l-32 .8" stroke="#30242A" stroke-width="4" stroke-linecap="round" stroke-linejoin="round"/><path d="M423.4 314.4a13.8 13.8 0 0 0-13.8 13.8 13.8 13.8 0 0 0 13.8 13.8M404.1 314.4a13.8 13.8 0 0 0 0 27.6" stroke="#FF7235" stroke-width="4" stroke-miterlimit="10"/><path d="M305 316.3h151.5c6.5 0 11.8 5.3 11.8 11.8v.2c0 6.5-5.3 11.8-11.8 11.8H305c-6.5 0-11.8-5.3-11.8-11.8v-.2c0-6.5 5.3-11.8 11.8-11.8Z" fill="#30242A"/><path d="M279.6 824.4 370.8 317l23.5 4.2L303 828.6l-23.5-4.2Z" fill="#30242A"/><path d="M456.3 316.3h.2c6.5 0 11.8 5.3 11.8 11.8v.2c0 6.5-5.3 11.8-11.8 11.8h-.2c-6.6 0-11.9-5.3-11.9-11.8v-.2c0-6.5 5.3-11.8 11.9-11.8Z" stroke="#FF7235" stroke-width="4" stroke-miterlimit="10"/><path d="M341.8 315.2a13.8 13.8 0 0 0-9.2 13v0a13.8 13.8 0 0 0 8.2 12.6M325.8 315.2a13.8 13.8 0 0 0-9.2 13v0a13.8 13.8 0 0 0 8.2 12.6" stroke="#FF7235" stroke-width="4" stroke-miterlimit="10" stroke-linecap="round"/><path d="M291.4 827.8H626v23.9H291.4v-23.9Z" fill="#30242A"/><path d="M605.3 881a29.3 29.3 0 1 1 0-58.7 29.3 29.3 0 0 1 0 58.7Z" fill="#30242A"/><path d="M605.3 862.7a11 11 0 1 1 0-22 11 11 0 0 1 0 22Z" fill="#FFB7D5"/><path d="M286.1 881a29.3 29.3 0 1 1 0-58.7 29.3 29.3 0 0 1 0 58.7Z" fill="#30242A"/><path d="M286.1 862.7a11 11 0 1 1 0-22 11 11 0 0 1 0 22Z" fill="#FFB7D5"/><path d="M559.5 851.7h91.7a45.8 45.8 0 0 0-91.7 0ZM240.3 851.7H332a45.8 45.8 0 0 0-91.7 0Z" fill="#FF7235"/><path d="M514.8 748H429c-1-15-3.8-35.9-7.3-64.6-7.4-60.8-12.9-116-5.5-160.1 7.3-44.2 72.3-196 72.3-196h122.2c9.6 82.8-70.6 177-96 216.2-27.7 42.3-4.7 69.9 10 111.3 14.8 41.4-10 58.9-10 58.9.7 11.4.7 23 0 34.4Z" fill="#4856DF"/><path d="M500.9 816.8H380.2c8.5-20 34.7-29.9 43.3-37.7 5.4-4.9 6.6-14.3 5.5-31h85.8c-2 32-9 55.8-13.9 68.7Z" fill="#30242A"/><path d="M496.2 827.8H377.5c.3-3.8 1.2-7.5 2.7-11h120.7c-1.4 3.8-3 7.5-4.7 11Z" fill="#3EC1F3"/><path d="M481.4 716.9V747M502.2 716.9V747M460.6 716.9V747M439.9 716.9V747M514.4 716h-88" stroke="#3EC1F3" stroke-width="4" stroke-miterlimit="10" stroke-linecap="round"/><path d="m459.1 398.4 8.7-21.3 45-8v.3a19.4 19.4 0 0 1-15.8 22.4l-37.9 6.6Z" fill="#3EC1F3"/><path d="m442.6 772.8-14.2-5.8M435.3 786.6l-11.9-9.6" stroke="#fff" stroke-width="4" stroke-linecap="round" stroke-linejoin="round"/><path d="M287.7 187s-15.8.6-17-13.1c0 0-11.3-5.2-8.3-15.5 0 0-10.3-3-7.4-13.2.2-.6-5.8-1.8-5.5-10.3.4-12.3 8.8-21.2 12.5-22.2 11-2.7 6.8 15.2 7.3 14.7 6.4-5.5 15.8-8 19.1-5.2 5.9 4.9 1.8 11.4 1.8 11.4s7.5-1.8 11.1 3.6c4.5 6.6-3.5 12.7-3.5 12.7s8.3 1 7 8.6c-1.6 8.6-14.5 10.5-20.7 19.6l3.6 8.9Z" fill="#EAA58B"/><path d="M298.2 148.3c-8.8 3.3-24 10.6-28.4 22.6M288.3 133c-7.5 4-20.7 12.5-26.7 23.4M267.9 126a56.7 56.7 0 0 0-13.5 17" stroke="#A15842" stroke-width="4" stroke-linecap="round" stroke-linejoin="round"/><path d="M582 148.5S549 198 558 245.7c6.4 34 83.4 63.3 128.4 73.3v-26.6S593 269.5 582 228.3c-6.7-25 20.1-79.8 20.1-79.8" fill="#F5EBDD"/><path d="M364.7 309c5.5-13.8 23-28.4 43-35.8 38.8-14 133 6.5 133 6.5l14.1-30.2 69.5 34c-10 19.5-22 36-34.3 47.3a33.9 33.9 0 0 0-60 17c-38.4-3-80.9-20.6-92.9-31.4 0 0-7.3 6.4-15.6 7.3 0 2.8 12.9 39.4-10 31.2 0 0-6.5 8.3-15.6-1 0 0-6.5 9.3-15.6 1 0 0-5 3.1-12-4.6-8.2-9.3-10.6-23.8-3.6-41.3Z" fill="#EAA58B"/><path d="M602.1 148.5h2.3c18.6 0 49 13.8 45.4 49.4a245.7 245.7 0 0 1-25.5 85.5l-69.5-34 47.3-100.9Z" fill="#FFB7D5"/><path d="M563.6 318.1a33.8 33.8 0 0 1 26.4 12.6 93.2 93.2 0 0 1-8 6.7c-13 9.4-31.9 11.8-52 10.3a33.9 33.9 0 0 1 33.6-29.6Z" fill="#CA7358"/><path d="M410.6 353.4c-4-8-13-28.8-6.5-42.6M564.5 282.4l-21.6-4.5M394.4 353c-4.2-8.4-13.2-28.8-6.8-42.2M378.4 354c-4-8-12.9-29.5-6.4-43.2" stroke="#A15842" stroke-width="4" stroke-linecap="round" stroke-linejoin="round"/></svg>