<svg width="177" height="177" viewBox="0 0 177 177" fill="none" xmlns="http://www.w3.org/2000/svg">
<path fill-rule="evenodd" clip-rule="evenodd" d="M88.5 177C137.379 177 177 137.379 177 88.5C177 39.6215 137.379 0 88.5 0C39.6215 0 0 39.6215 0 88.5C0 137.379 39.6215 177 88.5 177ZM115.05 70.8C115.05 77.8415 112.253 84.5946 107.274 89.5737C102.295 94.5528 95.5415 97.35 88.5 97.35C81.4585 97.35 74.7054 94.5528 69.7263 89.5737C64.7472 84.5946 61.95 77.8415 61.95 70.8C61.95 63.7585 64.7472 57.0054 69.7263 52.0263C74.7054 47.0472 81.4585 44.25 88.5 44.25C95.5415 44.25 102.295 47.0472 107.274 52.0263C112.253 57.0054 115.05 63.7585 115.05 70.8ZM35.4 132.75C41.5774 124.501 49.5933 117.806 58.8111 113.197C68.0288 108.588 78.1943 106.192 88.5 106.2C98.8057 106.192 108.971 108.588 118.189 113.197C127.407 117.806 135.423 124.501 141.6 132.75C135.423 140.999 127.407 147.694 118.189 152.303C108.971 156.912 98.8057 159.308 88.5 159.3C78.1943 159.308 68.0288 156.912 58.8111 152.303C49.5933 147.694 41.5774 140.999 35.4 132.75Z" fill="#FFB7D5"/>
</svg>
