<svg width="202" height="168" viewBox="0 0 202 168" fill="none" xmlns="http://www.w3.org/2000/svg">
<path d="M101 0C45.2187 0 0 45.2187 0 101C0 125.307 8.59117 147.609 22.8972 165.036C25.1044 147.363 42.7555 132.417 67.5065 125.338C76.5489 133.763 88.229 138.875 101 138.875C113.47 138.875 124.921 134.021 133.872 125.949C158.837 133.646 176.109 149.466 176.676 167.855C192.422 150.042 202 126.646 202 101C202 45.2187 156.781 0 101 0ZM101 126.915C94.5527 126.915 88.4773 125.143 83.0827 122.075C70.0825 114.677 61.1315 99.5395 61.1315 82.0622C61.1315 57.3306 79.016 37.2091 101 37.2091C122.987 37.2091 140.869 57.3306 140.869 82.0622C140.869 99.8079 131.638 115.133 118.314 122.402C113.066 125.264 107.209 126.915 101 126.915Z" fill="#DBCCDD"/>
</svg>
