<svg width="87" height="87" viewBox="0 0 87 87" fill="none" xmlns="http://www.w3.org/2000/svg">
<g clip-path="url(#clip0_602_2)">
<path d="M43.5 0C19.575 0 0 19.575 0 43.5C0 67.425 19.575 87 43.5 87C67.5609 87 87 67.425 87 43.5C87 19.575 67.5609 0 43.5 0ZM31.1297 29.6344C33.0328 29.6344 34.6641 31.2656 34.6641 33.1687C34.6641 35.0719 33.0328 36.7031 31.1297 36.7031C29.2266 36.7031 27.5953 35.0719 27.5953 33.1687C27.5953 31.2656 29.2266 29.6344 31.1297 29.6344ZM34.1203 71.6391C33.3047 71.6391 32.7609 70.9594 32.7609 70.2797C32.7609 62.9391 26.5078 56.9578 18.8953 56.9578C18.0797 56.9578 17.5359 56.2781 17.5359 55.5984C17.5359 54.7828 18.2156 54.2391 18.8953 54.2391C28.1391 54.2391 35.6156 61.4438 35.6156 70.2797C35.4797 71.0953 34.8 71.6391 34.1203 71.6391ZM55.8703 36.7031C53.9672 36.7031 52.3359 35.0719 52.3359 33.1687C52.3359 31.2656 53.9672 29.6344 55.8703 29.6344C57.7734 29.6344 59.4047 31.2656 59.4047 33.1687C59.4047 35.0719 57.7734 36.7031 55.8703 36.7031Z" fill="#F9D500"/>
<path d="M87.0001 43.5C87.0001 67.425 67.561 87 43.5 87C29.4985 87 16.9922 80.3391 8.97192 70.0078C16.3125 75.5813 25.4204 78.9797 35.4797 78.9797C59.5407 78.9797 78.9797 59.4047 78.9797 35.4797C78.9797 25.5562 75.5813 16.3125 70.0079 8.97187C80.3391 16.9922 87.0001 29.4984 87.0001 43.5Z" fill="#EABE03"/>
<path d="M59.4046 33.1687C59.4046 35.0719 57.7734 36.7031 55.8703 36.7031C53.9671 36.7031 52.3359 35.0719 52.3359 33.1687C52.3359 31.2656 53.9671 29.6344 55.8703 29.6344C57.7734 29.6344 59.4046 31.2656 59.4046 33.1687ZM34.664 33.1687C34.664 35.0719 33.0328 36.7031 31.1296 36.7031C29.2265 36.7031 27.5953 35.0719 27.5953 33.1687C27.5953 31.2656 29.2265 29.6344 31.1296 29.6344C33.1687 29.6344 34.664 31.2656 34.664 33.1687ZM35.4796 70.2797C35.4796 71.0953 34.8 71.6391 34.1203 71.6391C33.3046 71.6391 32.7609 70.9594 32.7609 70.2797C32.7609 62.9391 26.5078 56.9578 18.8953 56.9578C18.0796 56.9578 17.5359 56.2781 17.5359 55.5984C17.5359 54.7828 18.2156 54.2391 18.8953 54.2391C28.0031 54.2391 35.4796 61.4437 35.4796 70.2797Z" fill="#322E63"/>
</g>
<defs>
<clipPath id="clip0_602_2">
<rect width="87" height="87" fill="white"/>
</clipPath>
</defs>
</svg>
