<svg width="28" height="28" viewBox="0 0 28 28" fill="none" xmlns="http://www.w3.org/2000/svg">
<g clip-path="url(#clip0_13_22)">
<path d="M19.25 3.5C17.22 3.5 15.2717 4.445 14 5.93833C12.7283 4.445 10.78 3.5 8.75 3.5C5.15667 3.5 2.33334 6.32333 2.33334 9.91667C2.33334 14.3267 6.3 17.92 12.3083 23.38L14 24.9083L15.6917 23.3683C21.7 17.92 25.6667 14.3267 25.6667 9.91667C25.6667 6.32333 22.8433 3.5 19.25 3.5ZM14.1167 21.6417L14 21.7583L13.8833 21.6417C8.33 16.6133 4.66667 13.2883 4.66667 9.91667C4.66667 7.58333 6.41667 5.83333 8.75 5.83333C10.5467 5.83333 12.2967 6.98833 12.915 8.58667H15.0967C15.7033 6.98833 17.4533 5.83333 19.25 5.83333C21.5833 5.83333 23.3333 7.58333 23.3333 9.91667C23.3333 13.2883 19.67 16.6133 14.1167 21.6417Z" fill="#A303A0"/>
</g>
<defs>
<clipPath id="clip0_13_22">
<rect width="28" height="28" fill="white"/>
</clipPath>
</defs>
</svg>
