<svg width="113" height="38" viewBox="0 0 113 38" fill="none" xmlns="http://www.w3.org/2000/svg">
<path fillRule="evenodd" clipRule="evenodd" d="M37.9115 18.9336L29.0266 14.3773C28.802 13.0313 27.6319 12.0053 26.2221 12.0053C24.7064 12.0053 23.4677 13.1912 23.3834 14.6858L14.9349 21.6558C14.4228 21.1579 13.7238 20.8513 12.9531 20.8513C12.0366 20.8513 11.2214 21.2849 10.7014 21.9582L0.122783 16.7864C1.19914 7.33904 9.22039 0 18.9558 0C29.4173 0 37.8995 8.47481 37.9115 18.9336ZM10.1169 23.8986L0 18.9526V18.9558C0 29.4247 8.48678 37.9115 18.9558 37.9115C28.7132 37.9115 36.7487 30.5392 37.7959 21.0609L37.7711 21.1093L28.601 16.4067C28.093 17.1808 27.2173 17.692 26.2221 17.692C25.3636 17.692 24.594 17.3115 24.0726 16.71L15.7924 23.5412C15.7951 23.592 15.7965 23.6432 15.7965 23.6947C15.7965 25.265 14.5235 26.5381 12.9531 26.5381C11.4513 26.5381 10.2215 25.3738 10.1169 23.8986Z" fill="#605BFF"/>
<path fillRule="evenodd" clipRule="evenodd" d="M37.9115 18.9336L29.0266 14.3773C28.802 13.0313 27.6319 12.0053 26.2221 12.0053C24.7064 12.0053 23.4677 13.1912 23.3834 14.6858L14.9349 21.6558C14.4228 21.1579 13.7238 20.8513 12.9531 20.8513C12.0366 20.8513 11.2214 21.2849 10.7014 21.9582L0.122783 16.7864C1.19914 7.33904 9.22039 0 18.9558 0C29.4173 0 37.8995 8.47481 37.9115 18.9336ZM10.1169 23.8986L0 18.9526V18.9558C0 29.4247 8.48678 37.9115 18.9558 37.9115C28.7132 37.9115 36.7487 30.5392 37.7959 21.0609L37.7711 21.1093L28.601 16.4067C28.093 17.1808 27.2173 17.692 26.2221 17.692C25.3636 17.692 24.594 17.3115 24.0726 16.71L15.7924 23.5412C15.7951 23.592 15.7965 23.6432 15.7965 23.6947C15.7965 25.265 14.5235 26.5381 12.9531 26.5381C11.4513 26.5381 10.2215 25.3738 10.1169 23.8986Z" fill="white"/>
<path d="M57.936 29.1275C57.04 29.1275 56.12 29.0075 55.176 28.7675C54.248 28.5275 53.448 28.1515 52.776 27.6395C52.456 27.4315 52.264 27.1835 52.2 26.8955C52.136 26.6075 52.168 26.3515 52.296 26.1275C52.424 25.8875 52.624 25.7275 52.896 25.6475C53.168 25.5675 53.472 25.6315 53.808 25.8395C54.496 26.2555 55.168 26.5595 55.824 26.7515C56.48 26.9275 57.16 27.0155 57.864 27.0155C59.016 27.0155 59.888 26.7675 60.48 26.2715C61.088 25.7755 61.392 25.0635 61.392 24.1355C61.392 23.2075 61.088 22.5195 60.48 22.0715C59.888 21.6235 59.024 21.3995 57.888 21.3995H56.256C55.504 21.3995 55.128 21.0475 55.128 20.3435C55.128 19.6555 55.504 19.3115 56.256 19.3115H57.648C58.656 19.3115 59.448 19.0555 60.024 18.5435C60.616 18.0315 60.912 17.3275 60.912 16.4315C60.912 15.6155 60.64 14.9915 60.096 14.5595C59.552 14.1115 58.776 13.8875 57.768 13.8875C57.096 13.8875 56.472 13.9755 55.896 14.1515C55.32 14.3275 54.72 14.6395 54.096 15.0875C53.792 15.2795 53.512 15.3435 53.256 15.2795C53 15.1995 52.8 15.0475 52.656 14.8235C52.528 14.5835 52.488 14.3275 52.536 14.0555C52.584 13.7675 52.76 13.5195 53.064 13.3115C53.736 12.8155 54.488 12.4395 55.32 12.1835C56.168 11.9115 57.048 11.7755 57.96 11.7755C59.656 11.7755 60.976 12.1675 61.92 12.9515C62.864 13.7195 63.336 14.7915 63.336 16.1675C63.336 17.0955 63.096 17.9115 62.616 18.6155C62.152 19.3195 61.504 19.8315 60.672 20.1515C61.68 20.4075 62.456 20.9035 63 21.6395C63.544 22.3595 63.816 23.2475 63.816 24.3035C63.816 25.7915 63.288 26.9675 62.232 27.8315C61.192 28.6955 59.76 29.1275 57.936 29.1275ZM68.5586 29.0795C67.7906 29.0795 67.4066 28.6875 67.4066 27.9035V12.9995C67.4066 12.2155 67.7906 11.8235 68.5586 11.8235C68.8946 11.8235 69.1506 11.8875 69.3266 12.0155C69.5186 12.1435 69.6946 12.3515 69.8546 12.6395L75.7586 23.6795L81.6626 12.6395C81.8226 12.3515 81.9906 12.1435 82.1666 12.0155C82.3586 11.8875 82.6146 11.8235 82.9346 11.8235C83.6706 11.8235 84.0386 12.2155 84.0386 12.9995V27.9035C84.0386 28.6875 83.6706 29.0795 82.9346 29.0795C82.1826 29.0795 81.8066 28.6875 81.8066 27.9035V16.5275L76.7666 25.8155C76.6386 26.0555 76.5026 26.2315 76.3586 26.3435C76.2146 26.4555 76.0146 26.5115 75.7586 26.5115C75.4866 26.5115 75.2706 26.4555 75.1106 26.3435C74.9666 26.2155 74.8306 26.0395 74.7026 25.8155L69.6626 16.5515V27.9035C69.6626 28.6875 69.2946 29.0795 68.5586 29.0795ZM89.2305 29.0795C88.4625 29.0795 88.0785 28.6875 88.0785 27.9035V12.9995C88.0785 12.2155 88.4625 11.8235 89.2305 11.8235C89.5665 11.8235 89.8225 11.8875 89.9985 12.0155C90.1905 12.1435 90.3665 12.3515 90.5265 12.6395L96.4305 23.6795L102.335 12.6395C102.495 12.3515 102.663 12.1435 102.839 12.0155C103.031 11.8875 103.287 11.8235 103.607 11.8235C104.343 11.8235 104.711 12.2155 104.711 12.9995V27.9035C104.711 28.6875 104.343 29.0795 103.607 29.0795C102.855 29.0795 102.479 28.6875 102.479 27.9035V16.5275L97.4385 25.8155C97.3105 26.0555 97.1745 26.2315 97.0305 26.3435C96.8865 26.4555 96.6865 26.5115 96.4305 26.5115C96.1585 26.5115 95.9425 26.4555 95.7825 26.3435C95.6385 26.2155 95.5025 26.0395 95.3745 25.8155L90.3345 16.5515V27.9035C90.3345 28.6875 89.9665 29.0795 89.2305 29.0795Z" fill="white"/>
</svg>
