<svg width="75" height="26" viewBox="0 0 75 26" fill="none" xmlns="http://www.w3.org/2000/svg">
<path d="M40.624 20.144C40.0267 20.144 39.4187 20.064 38.8 19.904C38.1813 19.7333 37.6427 19.4827 37.184 19.152C37.0133 19.0453 36.896 18.9173 36.832 18.768C36.7787 18.608 36.768 18.464 36.8 18.336C36.832 18.1973 36.896 18.08 36.992 17.984C37.0987 17.888 37.2267 17.8347 37.376 17.824C37.5253 17.8027 37.6907 17.8453 37.872 17.952C38.3307 18.2293 38.7787 18.432 39.216 18.56C39.6533 18.6773 40.1067 18.736 40.576 18.736C41.088 18.736 41.52 18.6613 41.872 18.512C42.224 18.3627 42.4853 18.144 42.656 17.856C42.8373 17.568 42.928 17.2213 42.928 16.816C42.928 16.208 42.7253 15.7547 42.32 15.456C41.9253 15.1467 41.3493 14.992 40.592 14.992H39.504C39.2587 14.992 39.072 14.9333 38.944 14.816C38.816 14.688 38.752 14.512 38.752 14.288C38.752 14.0747 38.816 13.9093 38.944 13.792C39.072 13.664 39.2587 13.6 39.504 13.6H40.432C40.8907 13.6 41.28 13.5253 41.6 13.376C41.92 13.216 42.1653 12.9973 42.336 12.72C42.5173 12.432 42.608 12.0853 42.608 11.68C42.608 11.136 42.4267 10.72 42.064 10.432C41.712 10.1333 41.1947 9.984 40.512 9.984C40.0747 9.984 39.6587 10.0427 39.264 10.16C38.88 10.2773 38.48 10.4853 38.064 10.784C37.904 10.8907 37.7493 10.9387 37.6 10.928C37.4613 10.9067 37.3387 10.8533 37.232 10.768C37.136 10.672 37.0667 10.5547 37.024 10.416C36.992 10.2773 37.0027 10.1333 37.056 9.984C37.1093 9.83467 37.216 9.70667 37.376 9.6C37.824 9.26933 38.3307 9.01867 38.896 8.848C39.4613 8.66667 40.0427 8.576 40.64 8.576C41.3867 8.576 42.0267 8.69333 42.56 8.928C43.104 9.16267 43.5147 9.49867 43.792 9.936C44.08 10.3733 44.224 10.896 44.224 11.504C44.224 11.9627 44.1387 12.3787 43.968 12.752C43.7973 13.1253 43.552 13.4453 43.232 13.712C42.9227 13.968 42.544 14.1493 42.096 14.256V14.08C42.8747 14.208 43.4773 14.528 43.904 15.04C44.3307 15.5413 44.544 16.1707 44.544 16.928C44.544 17.5893 44.384 18.1653 44.064 18.656C43.7547 19.136 43.3067 19.504 42.72 19.76C42.1333 20.016 41.4347 20.144 40.624 20.144ZM47.7057 20.112C47.4604 20.112 47.2684 20.0427 47.1298 19.904C47.0018 19.7653 46.9378 19.5733 46.9378 19.328V9.392C46.9378 9.136 47.0071 8.944 47.1458 8.816C47.2844 8.67733 47.4711 8.608 47.7057 8.608C47.9298 8.608 48.1004 8.65067 48.2178 8.736C48.3458 8.81067 48.4631 8.94933 48.5698 9.152L52.7618 16.976H52.2658L56.4418 9.152C56.5484 8.94933 56.6604 8.81067 56.7778 8.736C56.8951 8.65067 57.0658 8.608 57.2898 8.608C57.5244 8.608 57.7058 8.67733 57.8338 8.816C57.9618 8.944 58.0258 9.136 58.0258 9.392V19.328C58.0258 19.5733 57.9618 19.7653 57.8338 19.904C57.7164 20.0427 57.5351 20.112 57.2898 20.112C57.0444 20.112 56.8578 20.0427 56.7298 19.904C56.6018 19.7653 56.5378 19.5733 56.5378 19.328V11.072H56.8898L53.1778 17.936C53.0924 18.096 53.0018 18.2133 52.9058 18.288C52.8098 18.3627 52.6764 18.4 52.5058 18.4C52.3351 18.4 52.1964 18.3627 52.0898 18.288C51.9831 18.2027 51.8871 18.0853 51.8018 17.936L48.0578 11.056H48.4418V19.328C48.4418 19.5733 48.3778 19.7653 48.2498 19.904C48.1324 20.0427 47.9511 20.112 47.7057 20.112ZM61.487 20.112C61.2417 20.112 61.0497 20.0427 60.911 19.904C60.783 19.7653 60.719 19.5733 60.719 19.328V9.392C60.719 9.136 60.7883 8.944 60.927 8.816C61.0657 8.67733 61.2523 8.608 61.487 8.608C61.711 8.608 61.8817 8.65067 61.999 8.736C62.127 8.81067 62.2443 8.94933 62.351 9.152L66.543 16.976H66.047L70.223 9.152C70.3297 8.94933 70.4417 8.81067 70.559 8.736C70.6763 8.65067 70.847 8.608 71.071 8.608C71.3057 8.608 71.487 8.67733 71.615 8.816C71.743 8.944 71.807 9.136 71.807 9.392V19.328C71.807 19.5733 71.743 19.7653 71.615 19.904C71.4977 20.0427 71.3163 20.112 71.071 20.112C70.8257 20.112 70.639 20.0427 70.511 19.904C70.383 19.7653 70.319 19.5733 70.319 19.328V11.072H70.671L66.959 17.936C66.8737 18.096 66.783 18.2133 66.687 18.288C66.591 18.3627 66.4577 18.4 66.287 18.4C66.1163 18.4 65.9777 18.3627 65.871 18.288C65.7643 18.2027 65.6683 18.0853 65.583 17.936L61.839 11.056H62.223V19.328C62.223 19.5733 62.159 19.7653 62.031 19.904C61.9137 20.0427 61.7323 20.112 61.487 20.112Z" fill="#A303A0"/>
<path fill-rule="evenodd" clip-rule="evenodd" d="M25.9961 12.629L19.7881 9.44609C19.4973 8.73465 18.7983 8.23336 17.9823 8.23336C17.1115 8.23336 16.3741 8.80411 16.1236 9.59191L9.9931 14.6484C9.67755 14.4288 9.29403 14.3 8.88043 14.3C8.36985 14.3 7.9051 14.4963 7.55749 14.8174L0.121414 11.1828C1.00551 4.86338 6.43384 0 12.9983 0C20.0555 0 25.7996 5.62084 25.9961 12.629ZM7.00094 16.7715L0 13.3496C0.185327 20.3677 5.93394 26 12.9983 26C19.6913 26 25.2032 20.9444 25.9219 14.4445L25.762 14.7565L19.4174 11.5036C19.061 11.8908 18.55 12.1334 17.9823 12.1334C17.5073 12.1334 17.0719 11.9635 16.7337 11.6812L10.8039 16.5722C10.6504 17.4958 9.84765 18.2 8.88043 18.2C7.98409 18.2 7.229 17.5953 7.00094 16.7715Z" fill="#A303A0"/>
</svg>
