<svg width="23" height="23" viewBox="0 0 23 23" fill="none" xmlns="http://www.w3.org/2000/svg">
<path d="M9.89281 1.82169L10.9939 0.692003C11.4601 0.213668 12.214 0.213668 12.6752 0.692003L22.317 10.5793C22.7832 11.0576 22.7832 11.8311 22.317 12.3043L12.6752 22.1967C12.209 22.6751 11.4551 22.6751 10.9939 22.1967L9.89281 21.067C9.42163 20.5836 9.43155 19.7949 9.91265 19.3216L15.8892 13.4798H1.6348C0.975153 13.4798 0.444458 12.9353 0.444458 12.2585V10.6302C0.444458 9.95338 0.975153 9.40889 1.6348 9.40889H15.8892L9.91265 3.5671C9.42659 3.09386 9.41667 2.30511 9.89281 1.82169Z" fill="white"/>
</svg>
