<svg width="28" height="28" viewBox="0 0 28 28" fill="none" xmlns="http://www.w3.org/2000/svg">
<path d="M13.183 5.17697C13.0957 5.18766 12.7846 5.2251 12.5007 5.25719C11.8457 5.33207 10.5139 5.65832 9.79889 5.92039C6.91148 6.97937 3.99131 9.0064 1.51326 11.6592C0.547151 12.6968 0.39432 12.884 0.214198 13.2477C0.0777412 13.5258 0.0559082 13.6327 0.0559082 14.0232C0.0559082 14.6061 0.208739 14.9324 0.787314 15.6009C1.38772 16.2855 2.98153 17.8526 3.68565 18.4516C6.56761 20.8798 9.26398 22.249 12.1569 22.7464C12.73 22.848 13.0575 22.8694 14.0017 22.8694C15.2954 22.8694 15.8576 22.8052 17.042 22.5057C19.7165 21.8318 22.5221 20.1845 25.1693 17.7349C26.4793 16.5262 27.6146 15.2747 27.8548 14.7826C28.0022 14.4671 28.0131 14.4136 27.9913 13.9536C27.953 13.2156 27.8766 13.0872 26.5448 11.6592C25.8789 10.9479 25.1148 10.2205 24.2906 9.5252C21.3213 7.00611 18.0954 5.48717 15.0989 5.20371C14.5421 5.15023 13.5542 5.13953 13.183 5.17697ZM15.2026 8.26833C16.3925 8.5197 17.3749 9.04384 18.2428 9.88354C20.6062 12.1833 20.6117 15.847 18.2537 18.1628C16.458 19.9171 13.7834 20.3877 11.5346 19.3448C9.74977 18.5212 8.53803 16.9969 8.12867 15.0661C8.03588 14.6489 8.03588 13.3921 8.12867 12.9802C8.39066 11.7555 8.9474 10.7286 9.81527 9.88354C10.8196 8.90478 11.9276 8.38599 13.4559 8.17206C13.7616 8.12927 14.815 8.1881 15.2026 8.26833Z" fill="#FFB7D5"/>
<path d="M13.101 9.88343C11.7692 10.1669 10.6012 11.1029 10.0499 12.3383C9.56955 13.408 9.60776 14.8307 10.1536 15.9164C11.5345 18.6601 15.4208 19.0773 17.3967 16.6973C18.2154 15.7132 18.5429 14.2798 18.2373 13.0336C17.8443 11.4452 16.5561 10.2097 14.9459 9.88343C14.4383 9.78181 13.5814 9.78181 13.101 9.88343Z" fill="#FFB7D5"/>
</svg>
