<svg width="27" height="27" viewBox="0 0 27 27" fill="none" xmlns="http://www.w3.org/2000/svg">
<path d="M2.72358 14.7534C2.63034 14.837 2.51965 14.9034 2.39783 14.9487C2.27601 14.9939 2.14544 15.0172 2.01359 15.0172C1.88173 15.0172 1.75116 14.9939 1.62934 14.9487C1.50752 14.9034 1.39683 14.837 1.30359 14.7534C1.21035 14.6697 1.13639 14.5704 1.08593 14.4611C1.03547 14.3518 1.0095 14.2347 1.0095 14.1164C1.0095 13.9981 1.03547 13.8809 1.08593 13.7717C1.13639 13.6624 1.21035 13.563 1.30359 13.4794L14.2257 1.88799C15.6551 0.655996 17.5674 -0.0219845 19.5493 0.000544002C21.5312 0.0230725 23.4237 0.744301 24.8179 2.00839C26.212 3.27249 26.9958 4.97794 27 6.75626C27.0041 8.53458 26.2283 10.243 24.8401 11.5123L9.33302 25.4295L9.25209 25.4955C8.08226 26.4218 6.86092 26.9455 5.57337 26.9961C4.28581 27.0467 2.96883 26.6066 1.67637 25.6011L1.6592 25.5879L1.62241 25.5549C1.05366 25.0566 0.607543 24.457 0.312788 23.7946C0.0359904 23.1544 -0.0592377 22.4626 0.0356574 21.7813C0.144614 20.9523 0.481735 20.1606 1.01665 19.4775C1.48397 18.8948 2.012 18.3533 2.5936 17.8603L16.9848 4.94427C17.5809 4.41085 18.3873 4.10966 19.2292 4.10595C20.0711 4.10225 20.8807 4.39632 21.4826 4.92447L21.5047 4.94427C22.0931 5.47155 22.4286 6.18425 22.4396 6.93034C22.4506 7.67642 22.1362 8.39683 21.5636 8.93789L21.5047 8.9973L9.10985 20.1134C9.01661 20.1971 8.90592 20.2634 8.7841 20.3087C8.66228 20.354 8.53171 20.3773 8.39985 20.3773C8.268 20.3773 8.13743 20.354 8.01561 20.3087C7.89379 20.2634 7.7831 20.1971 7.68986 20.1134C7.59662 20.0298 7.52266 19.9305 7.4722 19.8212C7.42174 19.7119 7.39577 19.5947 7.39577 19.4764C7.39577 19.3581 7.42174 19.241 7.4722 19.1317C7.52266 19.0224 7.59662 18.9231 7.68986 18.8394L20.1117 7.6903C20.3145 7.4875 20.4239 7.22323 20.418 6.95085C20.4121 6.67846 20.2912 6.41822 20.0798 6.22267C19.8574 6.02394 19.5562 5.91237 19.2423 5.91237C18.9284 5.91237 18.6272 6.02394 18.4048 6.22267L4.00623 19.1321C3.51637 19.5479 3.06904 20.0022 2.66963 20.4897C2.32049 20.9354 2.09974 21.4517 2.02707 21.9925C1.9731 22.3833 2.027 22.78 2.18403 23.1477C2.37697 23.5665 2.66227 23.9459 3.02278 24.2633C3.89587 24.9366 4.71745 25.2314 5.49734 25.2006C6.27723 25.1698 7.09391 24.8024 7.92039 24.1467L23.4201 10.2405C24.4311 9.30792 24.9944 8.05688 24.9889 6.75592C24.9834 5.45496 24.4096 4.20778 23.3907 3.28212C22.3718 2.35645 20.989 1.82608 19.5391 1.80486C18.0893 1.78363 16.6879 2.27324 15.6359 3.16859L2.72358 14.7534Z" fill="#490057"/>
</svg>
