<svg width="24" height="24" viewBox="0 0 24 24" fill="none" xmlns="http://www.w3.org/2000/svg">
<path fill-rule="evenodd" clip-rule="evenodd" d="M5 10.0701C5 6.16021 8.16555 3 11.9946 3C15.8344 3 19 6.16021 19 10.0701C19 12.0403 18.3058 13.8695 17.1631 15.4198C15.9025 17.13 14.3488 18.62 12.6 19.7896C12.1997 20.0599 11.8385 20.0803 11.3992 19.7896C9.64037 18.62 8.08666 17.13 6.83688 15.4198C5.6934 13.8695 5 12.0403 5 10.0701ZM9.68945 10.2902C9.68945 11.6 10.725 12.6302 11.9947 12.6302C13.2652 12.6302 14.3107 11.6 14.3107 10.2902C14.3107 8.99058 13.2652 7.91026 11.9947 7.91026C10.725 7.91026 9.68945 8.99058 9.68945 10.2902Z" fill="#A303A0"/>
</svg>
