<svg width="24" height="23" viewBox="0 0 24 23" fill="none" xmlns="http://www.w3.org/2000/svg">
<path d="M23.6024 4.81461C23.6024 5.30843 23.47 5.72819 23.205 6.07387L12.9289 19.4813L10.9986 21.9998C10.7336 22.3455 10.4119 22.5183 10.0334 22.5183C9.65492 22.5183 9.3332 22.3455 9.06826 21.9998C8.80331 21.6541 7 20 7 20L1 13.5185C0.735054 13.1728 0.602581 12.7531 0.602581 12.2593C0.602581 11.7654 0.735054 11.3457 1 11L3.03471 9.01831C3.29966 8.67263 3.62138 8.49979 3.99987 8.49979C4.37837 8.49979 4.70009 8.67263 4.96503 9.01831L10.0334 14.0183L19.3444 1.03683C19.6093 0.69115 19.9311 0.518311 20.3095 0.518311C20.688 0.518311 21.0098 0.69115 21.2747 1.03683L23.205 3.55535C23.47 3.90103 23.6024 4.32078 23.6024 4.81461Z" fill="white"/>
</svg>
